<?xml version="1.0" ?>
<!DOCTYPE svg PUBLIC "-//W3C//DTD SVG 1.1 Basic//EN" "http://www.w3.org/Graphics/SVG/1.1/DTD/svg11-basic.dtd">
<svg version="1.1" width="240.68px" height="172.917px" viewBox="0 0 240.68 172.917" xmlns="http://www.w3.org/2000/svg" xmlns:xlink="http://www.w3.org/1999/xlink">
<style type="text/css">
  <![CDATA[
  /* RGB définis dans charte graphique */
  .bordeaux { fill: rgb(171,  1, 50) }
  .gris     { fill: rgb(169,170,172) }
  
  .bleu     { fill: rgb(  1,152,233) }
  .jaune    { fill: rgb(253,205,  1) }
  .vert     { fill: rgb(126,179,  1) }
  .mauve    { fill: rgb( 93,  0,115) }
  .rouge    { fill: rgb(228,  0,  1) }
  ]]>
</style>
<g id="fond">
  <rect fill="#FFFFFF" width="240.68" height="172.917"/>
</g>
<g id="Agence" class="gris">
  <path class="bordeaux" d="M34.146,73.149V60.492H22.869v12.657H11.588V29.697c0-10.13,7.559-18.368,16.979-18.368 c9.297,0,16.857,8.238,16.857,18.368v43.452H34.146z M28.566,23.618c-3.22,0-5.698,2.702-5.698,6.079v18.507h11.277V29.697 C34.146,26.32,31.667,23.618,28.566,23.618z"/>
  <path d="M67.241,35.908H84.1v19.406c0,10.269-7.561,17.754-16.859,17.754c-9.418,0-16.978-7.485-16.978-17.754 V29.832c0-10.264,7.559-18.502,16.978-18.502c9.298,0,16.859,8.238,16.859,18.502H72.822c0-3.512-2.479-6.213-5.581-6.213 c-3.096,0-5.701,2.702-5.701,6.213v25.483c0,3.378,2.605,5.466,5.701,5.466c3.102,0,5.581-2.088,5.581-5.466v-7.11h-5.581V35.908z"/>
  <path d="M89.181,55.314V29.697c0-10.13,7.56-18.368,16.98-18.368h11.278v12.289h-11.278 c-3.102,0-5.702,2.702-5.702,6.079v6.211h16.98v12.296h-16.98v7.11c0,3.378,2.601,5.328,5.702,5.328h11.278v12.29h-11.278 C96.741,72.933,89.181,65.446,89.181,55.314z"/>
  <path d="M156.771,29.832v43.237H145.49V29.832c0-3.373-2.477-6.213-5.576-6.213c-3.101,0-5.702,2.84-5.702,6.213 v43.237h-11.277V29.832c0-10.128,7.561-18.502,16.979-18.502C149.211,11.33,156.771,19.704,156.771,29.832z"/>
  <path d="M179.502,73.079c-9.297,0-16.854-7.486-16.854-17.62V29.843c0-10.13,7.558-18.502,16.854-18.502 c9.294,0,16.854,8.372,16.854,18.502H185.08c0-3.375-2.478-6.213-5.577-6.213c-3.098,0-5.701,2.838-5.701,6.213v25.616 c0,3.379,2.604,5.33,5.701,5.33c3.1,0,5.577-1.951,5.577-5.33h11.277C196.357,65.593,188.796,73.079,179.502,73.079z"/>
  <path d="M201.039,55.314V29.697c0-10.13,7.562-18.368,16.982-18.368h11.276v12.289h-11.276 c-3.1,0-5.702,2.702-5.702,6.079v6.211h16.979v12.296h-16.979v7.11c0,3.378,2.603,5.328,5.702,5.328h11.276v12.29h-11.276 C208.6,72.933,201.039,65.446,201.039,55.314z"/>
</g>
<g id="universitaire" class="gris">
  <path class="bordeaux" d="M22.506,76.963h5.488v26.95c0,4.934-3.682,8.942-8.203,8.942c-4.526,0-8.203-4.009-8.203-8.942v-26.95 h5.487v26.95c0,1.644,1.206,2.96,2.715,2.96c1.506,0,2.714-1.316,2.714-2.96V76.963z"/>
  <path d="M48.051,85.968v26.888h-5.488V85.968c0-1.643-1.21-3.022-2.714-3.022c-1.508,0-2.775,1.38-2.775,3.022 v26.888h-5.49V85.968c0-4.933,3.679-9.005,8.265-9.005C44.369,76.963,48.051,81.035,48.051,85.968z"/>
  <path d="M57.249,112.789h-5.491V76.963h5.491V112.789z"/>
  <path d="M72.384,76.896h5.49v26.954c0,4.933-3.68,8.938-8.265,8.938h-8.203V76.896h5.487v29.914h2.716 c1.51,0,2.775-1.318,2.775-2.96V76.896z"/>
  <path d="M81.34,103.851V85.902c0-4.934,3.679-8.939,8.265-8.939h5.493v5.982h-5.493 c-1.51,0-2.774,1.314-2.774,2.957v3.023h8.268v5.986h-8.268v8.938c0,1.642,1.264,2.96,2.774,2.96h5.493v5.979h-5.493 C85.019,112.789,81.34,108.783,81.34,103.851z"/>
  <path d="M114.848,112.796h-5.975l-4.945-11.965v11.965H98.44v-26.89c0-4.926,3.68-8.939,8.266-8.939 c4.524,0,8.201,4.014,8.201,8.939v5.986c0,3.812-2.169,7.033-5.185,8.347L114.848,112.796z M106.706,82.949 c-1.509,0-2.778,1.314-2.778,2.957v9.011h2.778c1.506,0,2.713-1.38,2.713-3.024v-5.986 C109.418,84.264,108.211,82.949,106.706,82.949z"/>
  <path d="M133.489,103.913c0,4.934-3.678,8.942-8.202,8.942c-4.526,0-8.207-4.009-8.207-8.942h5.489 c0,1.644,1.206,3.026,2.717,3.026c1.506,0,2.773-1.383,2.773-3.026c0-0.657-0.241-1.379-0.603-1.836l-8.444-10.26 c-1.208-1.512-1.933-3.616-1.933-5.85c0-4.933,3.681-8.938,8.207-8.938c4.524,0,8.202,4.006,8.202,8.938h-5.429 c0-1.643-1.267-2.959-2.773-2.959c-1.511,0-2.717,1.316-2.717,2.959c0,0.725,0.181,1.38,0.545,1.842l8.446,10.254 C132.825,99.643,133.489,101.681,133.489,103.913z"/>
  <path d="M141.97,112.789h-5.491V76.963h5.491V112.789z"/>
  <path d="M161.725,77.009v5.982h-5.49v29.847h-5.487V82.991h-5.489v-5.982H161.725z"/>
  <path d="M175.152,112.789v-11.925h-5.506v11.925h-5.502V85.835c0-4.945,3.687-8.962,8.285-8.962 c4.535,0,8.227,4.017,8.227,8.962v26.954H175.152z M172.429,82.871c-1.572,0-2.783,1.317-2.783,2.964v9.032h5.506v-9.032 C175.152,84.188,173.943,82.871,172.429,82.871z"/>
  <path d="M190.66,112.789h-5.491V76.88h5.491V112.789z"/>
  <path d="M211.824,112.837h-5.994l-4.962-12.003v12.003h-5.504V85.86c0-4.94,3.687-8.968,8.291-8.968 c4.535,0,8.228,4.027,8.228,8.968v6.007c0,3.822-2.177,7.055-5.201,8.374L211.824,112.837z M203.655,82.894 c-1.513,0-2.787,1.319-2.787,2.967v9.04h2.787c1.51,0,2.722-1.386,2.722-3.033V85.86 C206.376,84.213,205.165,82.894,203.655,82.894z"/>
  <path d="M215.495,103.8V85.787c0-4.949,3.694-8.971,8.295-8.971h5.508v6.002h-5.508 c-1.512,0-2.784,1.32-2.784,2.969v3.033h8.292v6.007h-8.292v8.973c0,1.646,1.272,2.969,2.784,2.969h5.508v5.999h-5.508 C219.189,112.768,215.495,108.746,215.495,103.8z"/>
</g>
<g id="de_la_Francophonie" class="bordeaux">
  <path class="gris" d="M11.583,116.583h5.862c3.209,0,5.82,2.842,5.82,6.385v12.685c0,3.544-2.61,6.389-5.82,6.389h-5.862 V116.583z M15.478,137.792h1.968c1.07,0,1.926-0.975,1.926-2.14v-12.685c0-1.212-0.856-2.147-1.926-2.147h-1.968V137.792z"/>
  <path class="gris" d="M26.045,135.652v-12.729c0-3.498,2.612-6.34,5.863-6.34h3.894v4.237h-3.894 c-1.069,0-1.969,0.936-1.969,2.103v2.141h5.862v4.246h-5.862v6.343c0,1.165,0.899,2.095,1.969,2.095h3.894v4.245h-3.894 C28.657,141.992,26.045,139.146,26.045,135.652z"/>
  <path class="gris" d="M53.199,137.792v4.249h-9.714v-25.458h3.894v21.209H53.199z"/>
  <path class="gris" d="M62.629,141.992v-8.441h-3.892v8.441H54.84v-19.069c0-3.498,2.611-6.34,5.865-6.34 c3.209,0,5.815,2.842,5.815,6.34v19.069H62.629z M60.706,120.82c-1.115,0-1.968,0.936-1.968,2.103v6.387h3.892v-6.387 C62.629,121.756,61.771,120.82,60.706,120.82z"/>
  <path d="M73.199,141.992v-19.069c0-3.498,2.607-6.34,5.815-6.34h3.894v4.237h-3.894 c-1.07,0-1.923,0.936-1.923,2.103v2.141h5.817v4.246h-5.817v12.683H73.199z"/>
  <path d="M96.987,142.085H92.75l-3.509-8.488v8.488h-3.894v-19.073c0-3.497,2.61-6.341,5.862-6.341 c3.208,0,5.82,2.844,5.82,6.341v4.243c0,2.704-1.54,4.989-3.682,5.925L96.987,142.085z M91.21,120.921 c-1.069,0-1.968,0.926-1.968,2.091v6.389h1.968c1.072,0,1.925-0.979,1.925-2.146v-4.243 C93.135,121.847,92.282,120.921,91.21,120.921z"/>
  <path d="M107.042,141.992v-8.441h-3.895v8.441h-3.893v-19.069c0-3.498,2.611-6.34,5.862-6.34 c3.208,0,5.819,2.842,5.819,6.34v19.069H107.042z M105.116,120.82c-1.115,0-1.969,0.936-1.969,2.103v6.387h3.895v-6.387 C107.042,121.756,106.184,120.82,105.116,120.82z"/>
  <path d="M125.592,122.968v19.073H121.7v-19.073c0-1.164-0.856-2.147-1.924-2.147 c-1.072,0-1.968,0.983-1.968,2.147v19.073h-3.896v-19.073c0-3.496,2.612-6.385,5.864-6.385 C122.983,116.583,125.592,119.472,125.592,122.968z"/>
  <path d="M134.106,142.085c-3.208,0-5.817-2.844-5.817-6.342v-12.731c0-3.497,2.609-6.386,5.817-6.386 c3.208,0,5.82,2.889,5.82,6.386h-3.893c0-1.165-0.854-2.144-1.927-2.144c-1.067,0-1.966,0.979-1.966,2.144v12.731 c0,1.166,0.898,2.1,1.966,2.1c1.073,0,1.927-0.934,1.927-2.1h3.893C139.927,139.241,137.315,142.085,134.106,142.085z"/>
  <path d="M147.26,142.085c-3.206,0-5.817-2.844-5.817-6.342v-12.731c0-3.497,2.611-6.341,5.817-6.341 c3.213,0,5.821,2.844,5.821,6.341v12.731C153.082,139.241,150.473,142.085,147.26,142.085z M147.26,120.921 c-1.067,0-1.967,0.926-1.967,2.091v12.731c0,1.166,0.9,2.1,1.967,2.1c1.071,0,1.927-0.934,1.927-2.1v-12.731 C149.187,121.847,148.331,120.921,147.26,120.921z"/>
  <path d="M161.293,116.626c3.255,0,5.866,2.846,5.866,6.386v4.243c0,3.496-2.611,6.342-5.866,6.342h-1.924v8.488 h-3.894v-19.073C155.476,119.472,158.087,116.626,161.293,116.626z M161.293,120.868c-1.065,0-1.924,0.979-1.924,2.144v6.346 h1.924c1.071,0,1.974-0.936,1.974-2.103v-4.243C163.267,121.847,162.365,120.868,161.293,120.868z"/>
  <path d="M176.375,116.583h3.896v25.458h-3.896V129.31h-3.896v12.731h-3.848v-25.458h3.848v8.48h3.896V116.583z"/>
  <path d="M188.359,142.085c-3.212,0-5.822-2.844-5.822-6.342v-12.731c0-3.497,2.61-6.341,5.822-6.341 c3.204,0,5.814,2.844,5.814,6.341v12.731C194.173,139.241,191.563,142.085,188.359,142.085z M188.359,120.921 c-1.074,0-1.971,0.926-1.971,2.091v12.731c0,1.166,0.896,2.1,1.971,2.1c1.068,0,1.923-0.934,1.923-2.1v-12.731 C190.282,121.847,189.427,120.921,188.359,120.921z"/>
  <path d="M209.001,122.968v19.073h-3.891v-19.073c0-1.164-0.855-2.147-1.926-2.147c-1.071,0-1.97,0.983-1.97,2.147 v19.073h-3.892v-19.073c0-3.496,2.611-6.385,5.861-6.385C206.393,116.583,209.001,119.472,209.001,122.968z"/>
  <path d="M216.388,141.992h-3.895v-25.409h3.895V141.992z"/>
  <path d="M219.537,135.652v-12.729c0-3.498,2.61-6.34,5.86-6.34h3.896v4.237h-3.896 c-1.071,0-1.967,0.936-1.967,2.103v2.141h5.863v4.246h-5.863v6.343c0,1.165,0.896,2.095,1.967,2.095h3.896v4.245h-3.896 C222.147,141.992,219.537,139.146,219.537,135.652z"/>
</g>
<g id="couleurs">
  <rect class="bleu"  x="11.579"  y="153.218" width="43.542" height="8.504"/>
  <rect class="jaune" x="55.121"  y="153.218" width="43.542" height="8.504"/>
  <rect class="vert"  x="98.663"  y="153.218" width="43.543" height="8.504"/>
  <rect class="mauve" x="142.206" y="153.218" width="43.542" height="8.504"/>
  <rect class="rouge" x="185.748" y="153.218" width="43.543" height="8.504"/>
</g>
</svg>
