<?xml version="1.0" encoding="UTF-8" standalone="no"?>
<!-- Generator: Adobe Illustrator 13.0.0, SVG Export Plug-In . SVG Version: 6.00 Build 14948)  -->

<svg
   xmlns:dc="http://purl.org/dc/elements/1.1/"
   xmlns:cc="http://creativecommons.org/ns#"
   xmlns:rdf="http://www.w3.org/1999/02/22-rdf-syntax-ns#"
   xmlns:svg="http://www.w3.org/2000/svg"
   xmlns="http://www.w3.org/2000/svg"
   xmlns:sodipodi="http://sodipodi.sourceforge.net/DTD/sodipodi-0.dtd"
   xmlns:inkscape="http://www.inkscape.org/namespaces/inkscape"
   version="1.1"
   id="Layer_1"
   x="0px"
   y="0px"
   width="767.75"
   height="239.56"
   viewBox="0 0 767.74998 239.55999"
   enable-background="new 0 0 676.749 178.563"
   xml:space="preserve"
   inkscape:version="0.47 r22583"
   sodipodi:docname="Savoir_faire_Linux.svg"><metadata
   id="metadata49"><rdf:RDF><cc:Work
       rdf:about=""><dc:format>image/svg+xml</dc:format><dc:type
         rdf:resource="http://purl.org/dc/dcmitype/StillImage" /><dc:title></dc:title></cc:Work></rdf:RDF></metadata><defs
   id="defs47"><inkscape:perspective
     sodipodi:type="inkscape:persp3d"
     inkscape:vp_x="0 : 89.281502 : 1"
     inkscape:vp_y="0 : 1000 : 0"
     inkscape:vp_z="676.74902 : 89.281502 : 1"
     inkscape:persp3d-origin="338.37451 : 59.521001 : 1"
     id="perspective51" /></defs><sodipodi:namedview
   pagecolor="#ffffff"
   bordercolor="#666666"
   borderopacity="1"
   objecttolerance="10"
   gridtolerance="10"
   guidetolerance="10"
   inkscape:pageopacity="0"
   inkscape:pageshadow="2"
   inkscape:window-width="1180"
   inkscape:window-height="665"
   id="namedview45"
   showgrid="false"
   inkscape:zoom="0.79054418"
   inkscape:cx="338.37451"
   inkscape:cy="89.281502"
   inkscape:window-x="0"
   inkscape:window-y="33"
   inkscape:window-maximized="0"
   inkscape:current-layer="Layer_1" />



<g
   id="g2857"
   transform="translate(8.8546599,7.2052378)"><path
     style="opacity:0.5;fill:#0084a9"
     id="path3"
     d="M 135.95474,21.235277 C 83.708737,17.023278 37.724737,53.432272 33.242737,102.55115 c -4.485,49.12997 34.226,92.36997 86.478003,96.58297 52.244,4.221 98.227,-32.18 102.713,-81.31 4.48,-49.126848 -34.231,-92.365845 -86.479,-96.588843 z m 63.396,116.089843 c -2.16,2.345 -13.279,-10.707 -19.853,-12.592 -8.043,-2.3 -17.32,-6.162 -24.162,-8.84599 1.417,5.26499 2.801,16.51199 2.722,23.98999 -0.182,17.522 -6.807,37.763 -27.221,37.763 -20.121,0 -31.306003,-15.786 -28.245,-33.062 1.636,-9.226 4.863,-20.52 4.528,-20.789 -0.019,-0.015 -2.94,-0.401 -5.919,-0.285 -3.620003,0.138 -5.821003,1.101 -10.378003,1.566 -4.681,0.476 -9.71,2.349 -15.883,5.199 -7.048,3.251 -13.948,13.687 -16.127,10.472 -3.178,-4.701 7.811,-24.49999 21.043,-33.16598 11.961,-7.812981 19.111,-11.635961 22.057003,-13.983961 2.95,-2.34498 6.005,-4.875981 6.805,-7.893911 0.455,-1.7 -0.454,-4.903996 -1.359,-7.463996 -0.635,-1.787 -3.054,-5.483 -4.866,-10.278 -1.809,-4.792 -0.459,-11.139 4.271,-15.805 4.723,-4.671 15.903,-4.962 22.438,-4.839 6.542,0.12 3.594,-0.455 8.917,-1.343 5.33,-0.889 7.35,0.044 10.528,1.442 0,0 0.218,1.635 -1.115,2.403 -1.209,0.692 -3.076,2.141 -5.891,3.717 -2.81,1.577 -5.916,5.407 -8.811,8.31 -2.902,2.901 -3.361,7.03 -2.557,9.892 0.718,2.56 4.637,5.614 7.046,8.334 3.496,2.843996 7.243,5.631996 7.243,5.631996 0,0 10.092,4.922931 22.007,12.801891 29.035,19.191961 37.72,33.439961 32.782,38.824961 z" /><path
     style="fill:#ffffff"
     id="path5"
     d="m 199.18274,137.33312 c -2.158,2.349 -13.28,-10.708 -19.85,-12.591 -8.046,-2.297 -17.322,-6.16 -24.166,-8.84799 1.418,5.26799 2.803,16.51599 2.724,23.99699 -0.184,17.521 -6.806,37.754 -27.22,37.754 -20.125,0 -31.310003,-15.783 -28.246,-33.061 1.635,-9.227 4.863,-20.52 4.524,-20.789 -0.016,-0.015 -2.938,-0.396 -5.918,-0.284 -3.616003,0.139 -5.822003,1.1 -10.378003,1.566 -4.679,0.472 -9.712,2.352 -15.882,5.194 -7.048,3.252 -13.948,13.69 -16.13,10.473 -3.175,-4.697 7.811,-24.50099 21.044,-33.16198 11.961,-7.812981 19.111,-11.639961 22.059003,-13.984961 2.95,-2.34498 6.005,-4.878981 6.805,-7.889911 0.457,-1.704 -0.454,-4.907996 -1.358,-7.467996 -0.637,-1.788 -3.057,-5.483 -4.866,-10.274 -1.811,-4.799 -0.459,-11.141 4.269,-15.809 4.725,-4.675 15.902,-4.959 22.439,-4.835 6.542,0.117 3.592,-0.459 8.917,-1.347 5.327,-0.889 7.347,0.047 10.525,1.442 0,0 0.224,1.634 -1.113,2.399 -1.211,0.692 -3.077,2.149 -5.892,3.713 -2.808,1.581 -5.914,5.411 -8.812,8.32 -2.9,2.899 -3.359,7.028 -2.555,9.889 0.718,2.559 4.635,5.611 7.045,8.334 3.498,2.843996 7.244,5.635996 7.244,5.635996 0,0 10.095,4.918931 22.007,12.796891 29.038,19.199961 37.722,33.443961 32.784,38.828961 z" /><g
     transform="translate(32.888737,20.903277)"
     id="g7">
	<path
   style="fill:#717171"
   id="path9"
   d="m 272.903,36.26 c -4.107,0 -8.928,-4.219 -16.961,-4.219 -7.143,0 -11.769,3.607 -11.769,8.428 0,4.07 2.662,7.551 13.914,8.906 15.712,1.962 21.604,5.582 21.604,12.816 0,9.35 -9.111,15.077 -24.462,15.077 -11.607,0 -20.893,-4.366 -20.893,-6.63 0,-1.661 2.143,-1.438 3.93,-1.438 3.75,0 7.792,3.906 17.614,3.906 8.212,0 11.19,-4.212 11.19,-8.73 0,-5.73 -1.485,-8.52 -11.488,-9.564 -14.462,-1.511 -21.246,-4.98 -21.246,-12.823 0,-8.746 8.213,-14.473 21.784,-14.473 8.926,0 19.821,3.918 19.821,6.638 -10e-4,1.203 -1.785,2.106 -3.038,2.106 z" />
	<path
   style="fill:#717171"
   id="path11"
   d="m 286.47,68.075 c 0,-6.187 6.612,-9.652 14.825,-10.556 8.389,-0.907 13.034,-3.769 13.034,-6.939 0,-4.522 -3.931,-7.843 -8.57,-7.843 h -1.426 c -5.179,0 -7.5,4.525 -11.433,4.525 -1.071,0 -2.142,0.153 -2.142,-1.052 0,-3.011 7.145,-4.98 13.575,-4.98 18.925,0 17.497,5.883 17.497,20.512 v 11.003 c 0,1.966 -1.071,3.014 -3.218,3.014 -1.784,0 -4.996,-1.048 -7.858,-1.048 -5.352,0 -6.779,2.105 -12.496,2.105 -6.43,10e-4 -11.788,-3.316 -11.788,-8.741 z m 15.713,5.883 c 6.787,0 12.504,-4.227 12.504,-9.652 0,-3.469 -3.218,-6.335 -8.033,-6.335 -5.897,0 -13.042,4.22 -13.042,9.044 0,3.925 3.932,6.943 8.571,6.943 z" />
	<path
   style="fill:#717171"
   id="path13"
   d="m 348.082,62.042 c 2.496,0 4.638,-1.66 5.709,-4.824 l 3.75,-11.913 c 0.896,-2.567 2.861,-3.917 5.541,-3.917 0.529,0 3.034,0.149 3.211,2.108 0.181,1.056 -1.252,3.921 -1.252,4.07 l -10.182,25.036 c -1.068,2.708 -3.03,4.07 -6.064,4.07 -3.934,0 -6.43,-0.91 -8.041,-4.974 l -9.996,-24.885 c -1.608,-3.918 -0.714,-5.275 2.142,-5.275 4.104,0 5.358,0.604 7.142,7.537 2.323,8.896 3.75,12.967 8.04,12.967 z" />
	<path
   style="fill:#717171"
   id="path15"
   d="m 393.702,76.972 c -13.218,0 -21.433,-7.088 -21.433,-17.945 0,-10.25 8.396,-17.797 19.648,-17.797 15.001,0 23.389,6.186 23.389,17.946 0,10.858 -8.388,17.796 -21.604,17.796 z m 0.174,-3.316 c 7.15,0 14.293,-4.984 14.293,-14.327 0,-10.552 -6.968,-14.779 -14.468,-14.779 -7.145,0 -14.462,4.978 -14.462,13.569 0.001,9.653 5.71,15.537 14.637,15.537 z" />
	<path
   style="fill:#717171"
   id="path17"
   d="m 433.431,71.089 c 0,3.466 -1.245,5.279 -3.75,5.279 -3.925,0 -4.466,-0.902 -4.466,-7.841 V 47.114 c 0,-3.619 0.896,-5.424 3.925,-5.424 4.291,0 4.291,1.656 4.291,8.141 v 21.258 z m -3.75,-39.048 c -2.68,0 -3.57,-0.754 -3.57,-1.959 0,-1.216 0.891,-1.97 2.854,-1.97 1.792,0 3.578,0.462 3.578,1.97 0,1.205 -1.786,1.959 -2.862,1.959 z" />
	<path
   style="fill:#717171"
   id="path19"
   d="m 465.303,42.141 c 1.433,0 3.037,0.149 3.037,2.41 0,1.813 -3.037,2.261 -5.892,3.623 -4.646,2.112 -4.288,2.261 -5.892,3.619 -1.608,1.958 -2.497,4.063 -2.497,6.63 v 12.969 c 0,3.466 -1.253,5.122 -3.574,5.122 -4.646,0 -5.36,-0.903 -5.36,-7.233 V 46.509 c 0,-3.466 1.435,-5.279 4.464,-5.279 2.505,0 7.681,1.212 8.571,1.212 2.86,10e-4 4.646,-0.301 7.143,-0.301 z" />
	<path
   style="fill:#717171"
   id="path21"
   d="m 495.245,58.907 c 0,2.923 -1.783,4.394 -4.82,4.394 h -5.892 c -3.034,0 -4.645,-2.079 -4.645,-4.394 0,-2.585 1.436,-4.181 4.106,-4.181 h 6.787 c 2.863,0 4.464,1.84 4.464,4.181 z" />
	<path
   style="fill:#717171"
   id="path23"
   d="m 527.262,33.093 c -0.705,0.455 -1.959,2.862 -1.959,3.772 0,0.753 0.358,1.656 0.899,2.407 0.529,0.758 3.384,2.265 3.384,3.622 0,1.351 -1.071,1.206 -3.384,3.015 -1.438,1.059 -3.404,3.466 -3.404,6.485 v 15.528 c 0,6.936 -0.712,8.145 -4.279,8.145 -3.575,0 -4.288,-1.209 -4.288,-8.145 l -0.178,-15.227 c 0,-3.32 -1.07,-4.675 -2.505,-6.332 -1.07,-1.208 -3.212,-2.119 -3.212,-3.321 0,-1.507 1.254,-1.507 3.212,-3.615 0.896,-1.056 1.254,-1.737 3.934,-7.693 0.896,-1.959 3.037,-4.751 9.999,-4.751 3.93,0 5.176,0.983 5.176,2.636 0,1.362 0.182,1.06 -3.395,3.474 z" />
	<path
   style="fill:#717171"
   id="path25"
   d="m 536.374,68.075 c 0,-6.187 6.604,-9.652 14.825,-10.556 8.388,-0.907 13.034,-3.769 13.034,-6.939 0,-4.522 -3.931,-7.843 -8.579,-7.843 h -1.426 c -5.176,0 -7.5,4.525 -11.425,4.525 -1.071,0 -2.143,0.153 -2.143,-1.052 0,-3.011 7.138,-4.98 13.567,-4.98 18.933,0 17.505,5.883 17.505,20.512 v 11.003 c 0,1.966 -1.068,3.014 -3.218,3.014 -1.783,0 -5.003,-1.048 -7.858,-1.048 -5.358,0 -6.785,2.105 -12.503,2.105 -6.421,10e-4 -11.779,-3.316 -11.779,-8.741 z m 15.712,5.883 c 6.789,0 12.504,-4.227 12.504,-9.652 0,-3.469 -3.219,-6.335 -8.041,-6.335 -5.889,0 -13.033,4.22 -13.033,9.044 0,3.925 3.925,6.943 8.57,6.943 z" />
	<path
   style="fill:#717171"
   id="path27"
   d="m 592.086,71.089 c 0,3.466 -1.246,5.279 -3.75,5.279 -3.926,0 -4.463,-0.902 -4.463,-7.841 V 47.114 c 0,-3.619 0.896,-5.424 3.925,-5.424 4.288,0 4.288,1.656 4.288,8.141 v 21.258 z m -3.75,-39.048 c -2.68,0 -3.567,-0.754 -3.567,-1.959 0,-1.216 0.888,-1.97 2.854,-1.97 1.783,0 3.566,0.462 3.566,1.97 0.001,1.205 -1.782,1.959 -2.853,1.959 z" />
	<path
   style="fill:#717171"
   id="path29"
   d="m 622.174,42.141 c 1.429,0 3.037,0.149 3.037,2.41 0,1.813 -1.251,2.261 -4.106,3.623 -4.646,2.112 -4.29,2.261 -5.89,3.619 -1.61,1.958 -2.505,4.063 -2.505,6.63 v 12.969 c 0,3.466 -1.254,5.122 -3.57,5.122 -4.646,0 -5.358,-0.903 -5.358,-7.233 V 46.509 c 0,-3.466 1.428,-5.279 4.463,-5.279 2.506,0 7.684,1.212 8.57,1.212 2.863,10e-4 2.863,-0.301 5.359,-0.301 z" />
	<path
   style="fill:#717171"
   id="path31"
   d="m 665.211,58.423 -11.25,-0.146 c -11.076,0 -15.001,1.654 -15.001,6.783 0,4.522 5.896,8.899 11.963,8.899 2.862,0 5.005,-0.302 6.247,-1.056 l 4.648,-2.566 c 0.895,-0.452 1.068,-1.056 2.852,-1.056 4.82,0 -0.355,7.692 -14.284,7.692 -11.783,0 -19.642,-6.782 -19.642,-17.344 0,-11.152 6.787,-18.397 19.642,-18.397 15.364,0 18.75,10.562 18.75,14.479 0,1.809 -1.071,2.712 -3.925,2.712 z m -15.896,-1.057 h 3.043 c 4.282,0 8.388,-2.716 8.388,-5.727 0,-3.772 -3.575,-7.395 -9.997,-7.395 -6.787,0 -10.895,3.018 -10.895,6.944 0,3.623 4.107,6.178 9.461,6.178 z" />
</g><g
     transform="translate(32.888737,20.903277)"
     style="opacity:0.5"
     id="g33">
	<path
   style="fill:#0084a9"
   id="path35"
   d="m 259.786,139.819 c 3.843,3.447 16.926,4.256 41.292,4.256 6.087,0 10.255,1.42 10.255,4.264 0,3.448 -3.527,5.271 -10.255,5.271 H 246.32 c -6.091,0 -9.297,-1.822 -9.297,-6.896 V 96.742 c 0,-4.26 3.526,-6.283 9.617,-6.283 7.055,0 9.938,2.225 9.938,6.283 -0.321,43.004 -0.321,39.825 3.208,43.077 z" />
	<path
   style="fill:#0084a9"
   id="path37"
   d="m 344.503,147.909 c 0,3.851 -2.959,5.7 -7.768,5.7 -4.257,0 -6.962,-0.807 -6.962,-10.139 V 97.259 c 0.096,-3.447 3.087,-5.471 7.367,-5.471 5.124,0 7.35,1.82 7.362,9.903 v 46.218 z" />
	<path
   style="fill:#0084a9"
   id="path39"
   d="m 395.44,95.865 20.838,23.837 c 8.338,9.707 18.245,12.656 24.659,12.656 8.012,0 12.495,-5.058 12.495,-11.389 v -24.26 c 0,-2.955 1.283,-4.43 4.171,-4.43 2.57,0 3.845,2.107 3.845,6.12 v 51.256 c 0,3.173 -1.924,4.857 -6.086,4.857 h -2.563 c -3.85,0 -7.375,-1.48 -9.625,-3.797 l -31.38,-28.902 c -3.528,-4.009 -8.654,-7.172 -13.466,-7.172 -8.66,0 -13.146,4.217 -13.146,11.604 v 22.57 c 0,2.952 -0.642,5.276 -4.167,5.276 -2.562,0 -3.844,-1.479 -3.844,-6.117 V 96.709 c 0,-3.163 1.603,-4.853 4.807,-4.853 h 4.171 c 3.846,0 6.728,0.849 9.291,4.009 z" />
	<path
   style="fill:#0084a9"
   id="path41"
   d="m 502.874,98.034 v 33.469 c 0,10.952 10.585,18.456 26.612,18.456 16.033,0 26.608,-7.504 26.608,-18.456 V 98.034 c 0,-4.267 1.281,-6.694 7.371,-6.694 5.45,0 7.696,1.016 7.696,9.527 v 29.827 c 0,11.553 -8.978,25.552 -41.676,25.552 -30.774,0 -41.683,-11.767 -41.683,-25.552 v -32.66 c 0,-3.858 1.604,-6.496 5.133,-6.496 h 4.171 c 3.845,0 5.768,2.23 5.768,6.496 z" />
	<path
   style="fill:#0084a9"
   id="path43"
   d="m 651.744,94.788 c 2.246,-2.024 5.126,-3.855 13.146,-3.855 3.529,0 5.45,0.199 5.45,2.026 0,1.829 -1.607,3.449 -8.979,9.537 -13.787,11.359 -15.392,14.192 -15.392,17.848 0,3.853 3.209,6.694 5.134,8.523 25.004,22.515 25.646,22.308 25.646,24.13 0,1.625 -1.604,2.233 -6.092,2.233 -9.62,0 -11.541,-1.017 -22.441,-12.372 -7.692,-8.107 -12.18,-10.14 -16.35,-10.14 -7.696,0 -10.575,1.621 -21.476,12.982 -9.621,9.938 -13.149,9.529 -19.555,9.529 -4.17,0 -6.416,-0.809 -6.416,-2.233 0,-1.615 4.483,-4.658 9.936,-9.73 -5.452,4.867 16.352,-14.399 17.315,-15.42 2.562,-2.635 4.17,-5.271 4.17,-7.503 0,-2.432 -2.888,-6.488 -4.487,-7.912 L 593.72,96.811 c -6.413,-5.472 -0.321,-5.879 1.916,-5.879 10.908,0 11.55,0.407 21.167,10.144 4.804,4.866 8.971,7.104 13.782,7.104 3.205,0 7.373,-0.812 10.575,-3.448 3.21,-2.644 7.055,-6.904 10.584,-9.944 z" />
</g></g>
</svg>