<?xml version="1.0" encoding="UTF-8" standalone="no"?>
<!-- Created with Inkscape (http://www.inkscape.org/) -->
<svg
   xmlns:dc="http://purl.org/dc/elements/1.1/"
   xmlns:cc="http://creativecommons.org/ns#"
   xmlns:rdf="http://www.w3.org/1999/02/22-rdf-syntax-ns#"
   xmlns:svg="http://www.w3.org/2000/svg"
   xmlns="http://www.w3.org/2000/svg"
   xmlns:xlink="http://www.w3.org/1999/xlink"
   xmlns:sodipodi="http://sodipodi.sourceforge.net/DTD/sodipodi-0.dtd"
   xmlns:inkscape="http://www.inkscape.org/namespaces/inkscape"
   id="svg2"
   sodipodi:version="0.32"
   inkscape:version="0.46"
   width="990"
   height="765"
   xml:space="preserve"
   sodipodi:docname="MontrealPythonLogoFullpage.svg"
   inkscape:output_extension="org.inkscape.output.svg.inkscape"
   version="1.0"><metadata
     id="metadata7"><rdf:RDF><cc:Work
         rdf:about=""><dc:format>image/svg+xml</dc:format><dc:type
           rdf:resource="http://purl.org/dc/dcmitype/StillImage" /></cc:Work></rdf:RDF></metadata><defs
     id="defs5"><inkscape:perspective
       sodipodi:type="inkscape:persp3d"
       inkscape:vp_x="0 : 526.18109 : 1"
       inkscape:vp_y="0 : 1000 : 0"
       inkscape:vp_z="744.09448 : 526.18109 : 1"
       inkscape:persp3d-origin="372.04724 : 350.78739 : 1"
       id="perspective9" /><clipPath
       clipPathUnits="userSpaceOnUse"
       id="clipPath17"><path
         d="M 0,14400 L 14400,14400 L 14400,0 L 0,0 L 0,14400 z"
         id="path19" /></clipPath><linearGradient
       x1="0"
       y1="0"
       x2="1"
       y2="0"
       gradientUnits="userSpaceOnUse"
       gradientTransform="matrix(162.6665,0,0,-162.6665,7064.3306,7237.4614)"
       spreadMethod="pad"
       id="linearGradient37"><stop
         style="stop-opacity:1;stop-color:#a0d51d"
         offset="0"
         id="stop39" /><stop
         style="stop-opacity:1;stop-color:#8ab818"
         offset="1"
         id="stop41" /></linearGradient><clipPath
       clipPathUnits="userSpaceOnUse"
       id="clipPath49"><path
         d="M 0,14400 L 14400,14400 L 14400,0 L 0,0 L 0,14400 z"
         id="path51" /></clipPath><radialGradient
       fx="0"
       fy="0"
       cx="0"
       cy="0"
       r="1"
       gradientUnits="userSpaceOnUse"
       gradientTransform="matrix(34.412765,0,0,-34.412765,7274.9971,7256.3359)"
       spreadMethod="pad"
       id="radialGradient85"><stop
         style="stop-opacity:1;stop-color:#a0d51d"
         offset="0"
         id="stop87" /><stop
         style="stop-opacity:1;stop-color:#8ab818"
         offset="1"
         id="stop89" /></radialGradient><clipPath
       clipPathUnits="userSpaceOnUse"
       id="clipPath97"><path
         d="M 0,14400 L 14400,14400 L 14400,0 L 0,0 L 0,14400 z"
         id="path99" /></clipPath><clipPath
       clipPathUnits="userSpaceOnUse"
       id="clipPath109"><path
         d="M 7288.18,7292.89 L 7325.32,7292.89 L 7325.32,7255.1 L 7288.18,7255.1 L 7288.18,7292.89 z"
         id="path111" /></clipPath><clipPath
       clipPathUnits="userSpaceOnUse"
       id="clipPath125"><path
         d="M 7020.33,7312.1 L 7372.22,7312.1 L 7372.22,7204.39 L 7020.33,7204.39 L 7020.33,7312.1 z"
         id="path127" /></clipPath><clipPath
       clipPathUnits="userSpaceOnUse"
       id="clipPath129"><path
         d="M 7020.33,7312.1 L 7372.22,7312.1 L 7372.22,7204.39 L 7020.33,7204.39 L 7020.33,7312.1 z"
         id="path131" /></clipPath><radialGradient
       fx="0"
       fy="0"
       cx="0"
       cy="0"
       r="1"
       gradientUnits="userSpaceOnUse"
       gradientTransform="matrix(136.69412,1.31683e-2,1.12457e-2,-107.55975,7196.2773,7228.5767)"
       spreadMethod="pad"
       id="radialGradient137"><stop
         style="stop-opacity:1;stop-color:#ffffff"
         offset="0"
         id="stop139" /><stop
         style="stop-opacity:1;stop-color:#100f0d"
         offset="1"
         id="stop141" /></radialGradient><mask
       maskUnits="userSpaceOnUse"
       x="0"
       y="0"
       width="1"
       height="1"
       id="mask143"><g
         id="g145"><g
           clip-path="url(#clipPath125)"
           id="g147"
           style="opacity:0.35000604"><path
             d="M 7020.327,7312.099 L 7372.223,7312.099 L 7372.223,7204.391 L 7020.327,7204.391 L 7020.327,7312.099 z"
             style="fill:#000000;fill-opacity:1;fill-rule:nonzero;stroke:none"
             id="path149" /><g
             id="g151"><g
               id="g153" /><g
               id="g155"><g
                 clip-path="url(#clipPath129)"
                 id="g157"><g
                   id="g159"><g
                     id="g161"><g
                       id="g163"><g
                         id="g165"><path
                           d="M 7372.221,7235.187 C 7372.219,7223.858 7360.55,7214.674 7346.153,7214.674 L 7046.4,7214.649 C 7032.004,7214.648 7020.334,7223.83 7020.333,7235.157 L 7020.329,7291.56 C 7020.327,7302.887 7031.996,7312.07 7046.392,7312.072 L 7346.145,7312.095 C 7360.544,7312.099 7372.21,7302.916 7372.213,7291.588 L 7372.221,7235.187 z"
                           style="fill:url(#radialGradient137);stroke:none"
                           id="path167" /></g></g></g></g></g></g></g></g></g></mask><clipPath
       clipPathUnits="userSpaceOnUse"
       id="clipPath173"><path
         d="M 7020.33,7312.1 L 7372.22,7312.1 L 7372.22,7204.39 L 7020.33,7204.39 L 7020.33,7312.1 z"
         id="path175" /></clipPath><linearGradient
       inkscape:collect="always"
       xlink:href="#linearGradient37"
       id="linearGradient2641"
       gradientUnits="userSpaceOnUse"
       gradientTransform="matrix(162.6665,0,0,-162.6665,7064.3306,7237.4614)"
       spreadMethod="pad"
       x1="0"
       y1="0"
       x2="1"
       y2="0" /><radialGradient
       inkscape:collect="always"
       xlink:href="#radialGradient85"
       id="radialGradient2643"
       gradientUnits="userSpaceOnUse"
       gradientTransform="matrix(34.412765,0,0,-34.412765,7274.9971,7256.3359)"
       spreadMethod="pad"
       cx="0"
       cy="0"
       fx="0"
       fy="0"
       r="1" /><linearGradient
       inkscape:collect="always"
       xlink:href="#linearGradient37"
       id="linearGradient2719"
       gradientUnits="userSpaceOnUse"
       gradientTransform="matrix(162.6665,0,0,-162.6665,7064.3306,7237.4614)"
       spreadMethod="pad"
       x1="0"
       y1="0"
       x2="1"
       y2="0" /><radialGradient
       inkscape:collect="always"
       xlink:href="#radialGradient85"
       id="radialGradient2721"
       gradientUnits="userSpaceOnUse"
       gradientTransform="matrix(34.412765,0,0,-34.412765,7274.9971,7256.3359)"
       spreadMethod="pad"
       cx="0"
       cy="0"
       fx="0"
       fy="0"
       r="1" /></defs><sodipodi:namedview
     inkscape:window-height="683"
     inkscape:window-width="1016"
     inkscape:pageshadow="2"
     inkscape:pageopacity="0.0"
     guidetolerance="10.0"
     gridtolerance="10.0"
     objecttolerance="10.0"
     borderopacity="1.0"
     bordercolor="#666666"
     pagecolor="#ffffff"
     id="base"
     showgrid="false"
     inkscape:zoom="0.60130719"
     inkscape:cx="275.47826"
     inkscape:cy="382.5"
     inkscape:window-x="-2"
     inkscape:window-y="26"
     inkscape:current-layer="g2645" /><g
     id="g11"
     inkscape:groupmode="layer"
     inkscape:label="MontrealPythonSticker_FullColour"
     transform="matrix(1.25,0,0,-1.25,-8829.7161,9138.9424)"><g
       id="g2645"><g
         id="g2682"
         transform="translate(30.033332,-101.27943)"><g
           id="g13"
           transform="matrix(2.6433455,0,0,2.6614021,-11611.346,-12141.719)"><g
             id="g15"
             clip-path="url(#clipPath17)"><g
               id="g21"
               transform="translate(7341.8525,7175.9443)"><path
                 d="M 0,0 C -0.002,-11.328 -9.182,-20.509 -20.508,-20.515 L -256.375,-20.531 C -267.702,-20.533 -276.886,-11.352 -276.887,-0.023 L -276.897,112.782 C -276.897,124.109 -267.715,133.294 -256.387,133.293 L -20.521,133.313 C -9.193,133.314 -0.012,124.133 -0.009,112.805 L 0,0 z"
                 style="fill:#100f0d;fill-opacity:1;fill-rule:nonzero;stroke:none"
                 id="path23" /></g></g></g><g
           id="g2609"
           transform="matrix(2.6766346,0,0,2.6766346,-11823.775,-12273.186)"><g
             transform="matrix(0.9632004,0,0,0.9632004,259.79859,269.16617)"
             id="g25"><g
               id="g27"><g
                 id="g33"><g
                   id="g35"><path
                     id="path43"
                     style="fill:url(#linearGradient2719);stroke:none"
                     d="M 7080.336,7314.367 C 7069.007,7314.363 7059.828,7305.181 7059.828,7293.854 L 7059.828,7293.854 L 7059.838,7181.049 C 7059.838,7169.723 7069.021,7160.537 7080.347,7160.541 L 7080.347,7160.541 L 7316.217,7160.559 C 7327.543,7160.562 7336.723,7169.741 7336.723,7181.071 L 7336.723,7181.071 L 7336.712,7293.876 C 7336.712,7305.202 7327.533,7314.385 7316.199,7314.385 L 7316.199,7314.385 L 7080.336,7314.367 z" /></g></g></g></g><g
             transform="matrix(0.9632004,0,0,0.9632004,259.79859,269.16617)"
             id="g45"><g
               clip-path="url(#clipPath49)"
               id="g47"><g
                 transform="translate(7109.8301,7235.1855)"
                 id="g53"><path
                   id="path55"
                   style="fill:#100f0d;fill-opacity:1;fill-rule:nonzero;stroke:none"
                   d="M 0,0 L 11.498,0.001 C 13.656,0 15.215,-1.112 15.96,-3.121 L 21.612,-18.584 C 22.357,-20.667 23.026,-24.536 23.026,-24.536 L 23.174,-24.535 C 23.174,-24.535 23.844,-20.665 24.439,-18.585 L 28.674,-3.119 C 29.194,-1.11 31.203,0.001 33.21,0.001 L 42.449,0.002 L 42.802,0.003 L 49.793,0.004 L 49.794,10.34 L 62.286,10.34 L 62.287,0.003 L 70.318,0.006 L 70.319,-10.031 L 62.289,-10.032 L 62.288,-22.45 C 62.29,-26.762 66.677,-27.355 69.128,-27.357 C 70.031,-27.355 70.625,-27.302 70.775,-27.288 L 70.775,-27.282 L 78.279,-27.28 L 78.276,2.462 C 78.276,3.501 77.682,4.097 76.64,4.098 L 73.813,4.097 L 73.813,14.878 L 85.711,14.88 C 89.505,14.879 91.137,13.244 91.139,9.451 L 91.139,-1.925 C 91.14,-3.856 90.991,-5.198 90.991,-5.198 L 91.139,-5.197 C 93.296,-1.405 97.757,0.901 102.813,0.902 C 110.548,0.904 116.568,-2.665 116.569,-13.447 L 116.569,-25.863 C 116.571,-26.905 117.169,-27.501 118.212,-27.501 L 125.897,-27.502 C 124.781,-25.049 124.162,-22.279 124.161,-19.248 C 124.161,-7.201 133.75,0.904 145.72,0.906 C 148.073,0.905 150.326,0.592 152.436,0.013 L 182.164,0.015 C 185.658,0.017 187.515,-1.691 187.515,-4.297 L 187.516,-4.817 C 187.515,-5.189 187.44,-5.708 187.44,-5.708 L 187.589,-5.709 C 189.374,-2.734 192.941,0.909 199.709,0.911 C 204.794,0.912 209.125,-0.65 211.507,-4.771 L 211.501,53.562 C 211.501,59.226 206.908,63.816 201.245,63.815 L -24.366,63.797 C -30.029,63.795 -34.62,59.206 -34.619,53.541 L -34.615,14.869 L -17.059,14.869 C -7.869,14.873 -1.335,8.864 0,0" /></g><g
                 transform="translate(7255.6289,7225.3828)"
                 id="g57"><path
                   id="path59"
                   style="fill:#100f0d;fill-opacity:1;fill-rule:nonzero;stroke:none"
                   d="M 0,0 C -4.685,0 -8.701,-3.644 -8.701,-9.443 C -8.701,-15.167 -4.683,-18.662 0.002,-18.66 C 4.685,-18.66 8.699,-15.167 8.699,-9.441 C 8.7,-3.641 4.685,0.001 0,0" /></g><g
                 transform="translate(7090.3159,7238.9043)"
                 id="g61"><path
                   id="path63"
                   style="fill:#100f0d;fill-opacity:1;fill-rule:nonzero;stroke:none"
                   d="M 0,0 L -5.204,-0.001 L -5.203,-14.426 L -0.223,-14.426 C 4.09,-14.427 6.172,-11.378 6.171,-7.138 C 6.171,-2.901 4.087,0 0,0" /></g><g
                 transform="translate(7310.4355,7202.3369)"
                 id="g65"><path
                   id="path67"
                   style="fill:#100f0d;fill-opacity:1;fill-rule:nonzero;stroke:none"
                   d="M 0,0 L -0.003,17.03 C -0.003,20.597 -1.416,22.085 -4.24,22.085 C -8.256,22.084 -10.711,19.854 -11.825,16.581 C -12.348,15.095 -12.567,13.385 -12.567,11.525 L -12.567,-5.427 L -25.43,-5.43 L -25.433,20.447 C -25.433,21.49 -26.026,22.083 -27.069,22.083 L -34.986,22.083 C -33.821,19.566 -33.17,16.72 -33.171,13.606 C -33.168,1.637 -42.76,-6.321 -54.805,-6.322 C -57.159,-6.322 -59.413,-6.012 -61.526,-5.433 L -91.466,-5.435 C -95.259,-5.435 -96.896,-3.8 -96.896,-0.008 L -96.898,17.022 C -96.898,20.591 -98.308,22.079 -101.135,22.077 C -105.073,22.077 -107.681,19.771 -108.794,16.423 C -109.315,14.938 -109.464,13.299 -109.463,11.519 L -109.461,-5.437 L -122.326,-5.438 L -122.884,-5.415 L -129.765,-5.386 C -129.765,-5.386 -131.176,-5.808 -133.258,-5.807 C -139.356,-5.808 -151.18,-4.175 -151.183,8.689 L -151.183,22.04 L -158.155,22.039 L -158.155,22.072 L -159.215,22.071 C -160.107,22.072 -160.626,21.85 -161,20.881 L -172.598,-9.532 C -175.867,-18.008 -182.486,-21.054 -188.583,-21.057 C -195.2,-21.057 -199.364,-16.969 -199.364,-16.969 L -194.755,-7.896 C -194.755,-7.896 -192.527,-10.35 -189.476,-10.35 C -187.395,-10.349 -185.014,-9.754 -183.75,-6.556 L -183.306,-5.442 L -195.427,20.878 C -195.873,21.847 -196.17,22.07 -197.064,22.069 L -201.581,22.069 C -204.023,15.357 -209.898,10.991 -217.662,10.987 L -225.322,10.987 L -225.32,-5.445 L -235.218,-5.446 L -235.218,-16.162 C -235.216,-21.826 -230.624,-26.416 -224.961,-26.416 L 0.652,-26.395 C 6.313,-26.393 10.905,-21.806 10.905,-16.14 L 10.902,-5.426 L 5.431,-5.426 C 1.639,-5.426 -0.002,-3.792 0,0" /></g><text
                 id="text69"
                 transform="matrix(1,9.0641045e-5,9.0641045e-5,-1,7083.2134,7259.8032)"><tspan
                   id="tspan71"
                   sodipodi:role="line"
                   y="0"
                   x="0 32.146584 55.290627 78.772263 91.97599 105.74238 126.44823 146.854"
                   style="font-size:37.51060104px;font-variant:normal;font-weight:500;font-stretch:normal;writing-mode:lr-tb;fill:#918f90;fill-opacity:1;fill-rule:nonzero;stroke:none;font-family:Museo 500;-inkscape-font-specification:Museo500-Regular">Montréal</tspan></text>
</g></g><g
             transform="matrix(0.9632004,0,0,0.9632004,259.79859,269.16617)"
             id="g73"><g
               id="g75"><g
                 id="g81"><g
                   id="g83"><path
                     id="path91"
                     style="fill:url(#radialGradient2721);stroke:none"
                     d="M 7296.807,7309.756 C 7278.972,7309.756 7264.513,7295.296 7264.513,7277.458 L 7264.513,7277.458 C 7264.513,7259.624 7278.976,7245.164 7296.814,7245.164 L 7296.814,7245.164 C 7314.649,7245.167 7329.104,7259.627 7329.101,7277.465 L 7329.101,7277.465 C 7329.101,7295.297 7314.644,7309.754 7296.814,7309.756 L 7296.814,7309.756 C 7296.811,7309.756 7296.811,7309.756 7296.807,7309.756" /></g></g></g></g><g
             transform="matrix(0.9632004,0,0,0.9632004,7284.7825,7302.4892)"
             id="g101"><path
               id="path103"
               style="fill:#ffffff;fill-opacity:1;fill-rule:nonzero;stroke:none"
               d="M 0,0 C 1.246,0.005 2.271,-1.029 2.271,-2.301 C 2.276,-3.572 1.26,-4.602 0.014,-4.605 C -1.241,-4.609 -2.261,-3.585 -2.262,-2.315 C -2.265,-1.043 -1.256,-0.003 0,0 M 6.525,3.723 C 4.458,3.708 2.483,3.526 0.75,3.213 C -4.36,2.295 -5.282,0.402 -5.272,-3.084 L -5.261,-7.69 L 6.823,-7.654 L 6.83,-9.191 L -5.255,-9.225 L -9.791,-9.24 C -13.305,-9.25 -16.372,-11.368 -17.324,-15.387 C -18.418,-19.994 -18.463,-22.865 -17.289,-27.668 C -16.423,-31.243 -14.361,-33.787 -10.848,-33.777 L -6.693,-33.764 L -6.709,-28.244 C -6.722,-24.255 -3.28,-20.726 0.817,-20.714 L 12.89,-20.682 C 16.248,-20.669 18.924,-17.896 18.913,-14.522 L 18.879,-3.017 C 18.872,0.26 16.101,2.709 12.82,3.249 C 10.745,3.588 8.589,3.739 6.525,3.723" /></g><g
             transform="matrix(0.9632004,0,0,0.9632004,259.79859,269.16617)"
             id="g105"><g
               id="g107" /><g
               id="g113"><g
                 style="opacity:0.60000598"
                 id="g115"
                 clip-path="url(#clipPath109)"><g
                   id="g117"
                   transform="translate(7307.0762,7263.7217)"><path
                     id="path119"
                     style="fill:#ffffff;fill-opacity:1;fill-rule:nonzero;stroke:none"
                     d="M 0,0 C 1.252,0.003 2.271,-1.02 2.274,-2.29 C 2.28,-3.563 1.268,-4.602 0.013,-4.605 C -1.233,-4.609 -2.256,-3.576 -2.26,-2.302 C -2.263,-1.033 -1.245,-0.002 0,0 M 6.706,29.16 L 6.722,23.794 C 6.731,19.635 3.216,16.123 -0.807,16.11 L -12.875,16.076 C -16.181,16.067 -18.91,13.229 -18.899,9.918 L -18.866,-1.588 C -18.856,-4.864 -16.007,-6.781 -12.808,-7.712 C -8.98,-8.826 -5.313,-9.02 -0.739,-7.678 C 2.304,-6.787 5.295,-5.006 5.287,-1.519 L 5.273,3.085 L -6.795,3.052 L -6.802,4.588 L 5.268,4.621 L 11.309,4.639 C 14.823,4.649 16.124,7.101 17.336,10.782 C 18.588,14.571 18.521,18.211 17.302,23.064 C 16.422,26.557 14.759,29.184 11.24,29.173 L 6.706,29.16 z" /></g></g></g></g></g></g></g></g></svg>